HIERARCHY
ROOT newVegas:Hips
{
	OFFSET 0.000000 96.479958 0.000000
	CHANNELS 6 Xposition Yposition Zposition Xrotation Yrotation Zrotation
	JOINT newVegas:Pelvis
	{
		OFFSET 0.000000 0.000000 0.000000
		CHANNELS 3 Xrotation Yrotation Zrotation
		JOINT newVegas:LeftUpLeg
		{
			OFFSET 18.735201 -5.666702 -4.541200
			CHANNELS 3 Xrotation Yrotation Zrotation
			JOINT newVegas:LeftLeg
			{
				OFFSET -0.021200 -31.938179 0.493100
				CHANNELS 3 Xrotation Yrotation Zrotation
				JOINT newVegas:LeftFoot
				{
					OFFSET 0.021200 -31.938179 -4.336299
					CHANNELS 3 Xrotation Yrotation Zrotation
					JOINT newVegas:LeftToeBase
					{
						OFFSET 0.943001 -26.722000 15.023500
						CHANNELS 3 Xrotation Yrotation Zrotation
						End Site
						{
							OFFSET 0.000000 30.670183 0.000000
						}
					}
				}
				JOINT newVegas:Left_PantLeg
				{
					OFFSET 0.663870 -9.044666 -1.108900
					CHANNELS 3 Xrotation Yrotation Zrotation
					End Site
					{
						OFFSET 1.415995 20.635357 0.000000
					}
				}
			}
		}
		JOINT newVegas:RightUpLeg
		{
			OFFSET -18.735201 -5.666702 -4.541200
			CHANNELS 3 Xrotation Yrotation Zrotation
			JOINT newVegas:RightLeg
			{
				OFFSET 0.018946 -31.938133 0.493100
				CHANNELS 3 Xrotation Yrotation Zrotation
				JOINT newVegas:RightFoot
				{
					OFFSET -0.018946 -31.938126 -4.336299
					CHANNELS 3 Xrotation Yrotation Zrotation
					JOINT newVegas:RightToeBase
					{
						OFFSET -0.943001 -26.722004 15.023500
						CHANNELS 3 Xrotation Yrotation Zrotation
						End Site
						{
							OFFSET 0.000000 30.670187 0.000000
						}
					}
				}
				JOINT newVegas:Right_PantLeg
				{
					OFFSET -0.661674 -9.044716 -1.108900
					CHANNELS 3 Xrotation Yrotation Zrotation
					End Site
					{
						OFFSET -1.415958 20.635269 0.000000
					}
				}
			}
		}
	}
	JOINT newVegas:Spine
	{
		OFFSET 0.000000 10.199997 -0.299500
		CHANNELS 3 Xrotation Yrotation Zrotation
		JOINT newVegas:Spine1
		{
			OFFSET 0.000000 11.900002 -1.516600
			CHANNELS 3 Xrotation Yrotation Zrotation
			JOINT newVegas:Spine2
			{
				OFFSET 0.000000 13.600006 -2.842500
				CHANNELS 3 Xrotation Yrotation Zrotation
				JOINT newVegas:Neck
				{
					OFFSET 0.000000 9.624100 -2.890100
					CHANNELS 3 Xrotation Yrotation Zrotation
					JOINT newVegas:Head
					{
						OFFSET 0.000000 14.068802 -1.351900
						CHANNELS 3 Xrotation Yrotation Zrotation
						JOINT newVegas:Hair_Back
						{
							OFFSET 0.000000 3.231903 -17.524799
							CHANNELS 3 Xrotation Yrotation Zrotation
							End Site
							{
								OFFSET 0.000000 19.849884 0.000000
							}
						}
						JOINT newVegas:Hair_Front
						{
							OFFSET 0.000000 31.260406 4.573800
							CHANNELS 3 Xrotation Yrotation Zrotation
							JOINT newVegas:Hair_Front1
							{
								OFFSET 0.000000 2.284103 11.993300
								CHANNELS 3 Xrotation Yrotation Zrotation
								JOINT newVegas:Hair_Front2
								{
									OFFSET 0.000000 2.284103 11.993300
									CHANNELS 3 Xrotation Yrotation Zrotation
									End Site
									{
										OFFSET 0.000000 12.208862 0.000000
									}
								}
							}
						}
						JOINT newVegas:Jowel
						{
							OFFSET 0.000000 -7.458206 6.864100
							CHANNELS 3 Xrotation Yrotation Zrotation
							End Site
							{
								OFFSET 0.000000 19.849884 0.000000
							}
						}
					}
				}
				JOINT newVegas:LeftShoulder
				{
					OFFSET 15.263000 10.923401 -0.547700
					CHANNELS 3 Xrotation Yrotation Zrotation
					JOINT newVegas:LeftArm
					{
						OFFSET 25.438599 -2.830597 -13.032500
						CHANNELS 3 Xrotation Yrotation Zrotation
						JOINT newVegas:LeftForeArm
						{
							OFFSET 29.960503 0.000000 0.000000
							CHANNELS 3 Xrotation Yrotation Zrotation
							JOINT newVegas:LeftHand
							{
								OFFSET 27.849251 0.000000 0.000000
								CHANNELS 3 Xrotation Yrotation Zrotation
								JOINT newVegas:LeftHandThumb1
								{
									OFFSET 4.487587 -3.305161 6.305391
									CHANNELS 3 Xrotation Yrotation Zrotation
									JOINT newVegas:LeftHandThumb2
									{
										OFFSET 5.480453 -3.164139 3.164143
										CHANNELS 3 Xrotation Yrotation Zrotation
										JOINT newVegas:LeftHandThumb3
										{
											OFFSET 5.159721 -2.978973 2.978967
											CHANNELS 3 Xrotation Yrotation Zrotation
											End Site
											{
												OFFSET 2.494507 5.926697 1.738678
											}
										}
									}
								}
								JOINT newVegas:LeftHandIndex1
								{
									OFFSET 18.578728 -0.527832 5.208049
									CHANNELS 3 Xrotation Yrotation Zrotation
									JOINT newVegas:LeftHandIndex2
									{
										OFFSET 3.192009 0.000000 0.000000
										CHANNELS 3 Xrotation Yrotation Zrotation
										JOINT newVegas:LeftHandIndex3
										{
											OFFSET 3.835129 0.000000 0.000000
											CHANNELS 3 Xrotation Yrotation Zrotation
											End Site
											{
												OFFSET -0.034599 3.816971 0.371180
											}
										}
									}
								}
								JOINT newVegas:LeftHandMiddle1
								{
									OFFSET 18.476105 0.000000 0.000000
									CHANNELS 3 Xrotation Yrotation Zrotation
									JOINT newVegas:LeftHandMiddle2
									{
										OFFSET 3.324875 0.000000 0.000000
										CHANNELS 3 Xrotation Yrotation Zrotation
										JOINT newVegas:LeftHandMiddle3
										{
											OFFSET 4.596550 0.000000 0.000000
											CHANNELS 3 Xrotation Yrotation Zrotation
											End Site
											{
												OFFSET 0.057701 4.578827 0.399218
											}
										}
									}
								}
								JOINT newVegas:LeftHandRing1
								{
									OFFSET 17.732719 0.121887 -4.201567
									CHANNELS 3 Xrotation Yrotation Zrotation
									JOINT newVegas:LeftHandRing2
									{
										OFFSET 2.733170 0.000000 0.000000
										CHANNELS 3 Xrotation Yrotation Zrotation
										JOINT newVegas:LeftHandRing3
										{
											OFFSET 3.178268 0.000000 0.000000
											CHANNELS 3 Xrotation Yrotation Zrotation
											End Site
											{
												OFFSET 0.119102 3.170624 0.185394
											}
										}
									}
								}
								JOINT newVegas:LeftHandPinky1
								{
									OFFSET 15.989624 -0.606689 -7.535461
									CHANNELS 3 Xrotation Yrotation Zrotation
									JOINT newVegas:LeftHandPinky2
									{
										OFFSET 2.538986 0.000000 0.000000
										CHANNELS 3 Xrotation Yrotation Zrotation
										JOINT newVegas:LeftHandPinky3
										{
											OFFSET 2.593102 0.000000 0.000000
											CHANNELS 3 Xrotation Yrotation Zrotation
											End Site
											{
												OFFSET -0.150902 2.584198 0.152708
											}
										}
									}
								}
							}
							JOINT newVegas:Left_Sleeve
							{
								OFFSET 0.267448 -0.649796 0.577675
								CHANNELS 3 Xrotation Yrotation Zrotation
								End Site
								{
									OFFSET 0.000000 15.991241 0.000000
								}
							}
							JOINT newVegas:Left_CapeC
							{
								OFFSET 15.715958 -8.608795 -6.935905
								CHANNELS 3 Xrotation Yrotation Zrotation
								JOINT newVegas:Left_CapeC1
								{
									OFFSET 0.000000 -8.688499 0.000000
									CHANNELS 3 Xrotation Yrotation Zrotation
									End Site
									{
										OFFSET 0.000000 8.688499 0.000000
									}
								}
							}
						}
						JOINT newVegas:Left_CapeB
						{
							OFFSET 26.118385 -8.608795 -7.079235
							CHANNELS 3 Xrotation Yrotation Zrotation
							JOINT newVegas:Left_CapeB1
							{
								OFFSET 0.000000 -8.688499 0.000000
								CHANNELS 3 Xrotation Yrotation Zrotation
								End Site
								{
									OFFSET 0.000000 8.688499 0.000000
								}
							}
						}
						JOINT newVegas:Left_CapeA
						{
							OFFSET 5.115639 -8.608795 -10.395809
							CHANNELS 3 Xrotation Yrotation Zrotation
							JOINT newVegas:Left_CapeA1
							{
								OFFSET 0.000000 -8.688499 0.000000
								CHANNELS 3 Xrotation Yrotation Zrotation
								End Site
								{
									OFFSET 0.000000 8.688499 0.000000
								}
							}
						}
					}
				}
				JOINT newVegas:RightShoulder
				{
					OFFSET -15.263000 10.923401 -0.547700
					CHANNELS 3 Xrotation Yrotation Zrotation
					JOINT newVegas:RightArm
					{
						OFFSET -25.438599 -2.830597 -13.032500
						CHANNELS 3 Xrotation Yrotation Zrotation
						JOINT newVegas:RightForeArm
						{
							OFFSET -29.960503 0.000000 0.000000
							CHANNELS 3 Xrotation Yrotation Zrotation
							JOINT newVegas:RightHand
							{
								OFFSET -27.849251 0.000000 0.000000
								CHANNELS 3 Xrotation Yrotation Zrotation
								JOINT newVegas:RightHandThumb1
								{
									OFFSET -4.487587 -3.305161 6.305391
									CHANNELS 3 Xrotation Yrotation Zrotation
									JOINT newVegas:RightHandThumb2
									{
										OFFSET -5.480453 -3.164139 3.164143
										CHANNELS 3 Xrotation Yrotation Zrotation
										JOINT newVegas:RightHandThumb3
										{
											OFFSET -5.159721 -2.978973 2.978967
											CHANNELS 3 Xrotation Yrotation Zrotation
											End Site
											{
												OFFSET -2.494507 5.926697 1.738678
											}
										}
									}
								}
								JOINT newVegas:RightHandIndex1
								{
									OFFSET -18.578728 -0.527832 5.208049
									CHANNELS 3 Xrotation Yrotation Zrotation
									JOINT newVegas:RightHandIndex2
									{
										OFFSET -3.192009 0.000000 0.000000
										CHANNELS 3 Xrotation Yrotation Zrotation
										JOINT newVegas:RightHandIndex3
										{
											OFFSET -3.835129 0.000000 0.000000
											CHANNELS 3 Xrotation Yrotation Zrotation
											End Site
											{
												OFFSET 0.034599 3.816971 0.371180
											}
										}
									}
								}
								JOINT newVegas:RightHandMiddle1
								{
									OFFSET -18.476105 0.000000 0.000000
									CHANNELS 3 Xrotation Yrotation Zrotation
									JOINT newVegas:RightHandMiddle2
									{
										OFFSET -3.324875 0.000000 0.000000
										CHANNELS 3 Xrotation Yrotation Zrotation
										JOINT newVegas:RightHandMiddle3
										{
											OFFSET -4.596550 0.000000 0.000000
											CHANNELS 3 Xrotation Yrotation Zrotation
											End Site
											{
												OFFSET -0.057701 4.578827 0.399218
											}
										}
									}
								}
								JOINT newVegas:RightHandRing1
								{
									OFFSET -17.732719 0.121887 -4.201567
									CHANNELS 3 Xrotation Yrotation Zrotation
									JOINT newVegas:RightHandRing2
									{
										OFFSET -2.733170 0.000000 0.000000
										CHANNELS 3 Xrotation Yrotation Zrotation
										JOINT newVegas:RightHandRing3
										{
											OFFSET -3.178268 0.000000 0.000000
											CHANNELS 3 Xrotation Yrotation Zrotation
											End Site
											{
												OFFSET -0.119102 3.170624 0.185394
											}
										}
									}
								}
								JOINT newVegas:RightHandPinky1
								{
									OFFSET -15.989624 -0.606689 -7.535461
									CHANNELS 3 Xrotation Yrotation Zrotation
									JOINT newVegas:RightHandPinky2
									{
										OFFSET -2.538986 0.000000 0.000000
										CHANNELS 3 Xrotation Yrotation Zrotation
										JOINT newVegas:RightHandPinky3
										{
											OFFSET -2.593102 0.000000 0.000000
											CHANNELS 3 Xrotation Yrotation Zrotation
											End Site
											{
												OFFSET 0.150902 2.584198 0.152708
											}
										}
									}
								}
							}
							JOINT newVegas:Right_CapeC
							{
								OFFSET -15.715958 -8.608795 -6.935905
								CHANNELS 3 Xrotation Yrotation Zrotation
								JOINT newVegas:Right_CapeC1
								{
									OFFSET 0.000000 -8.688499 0.000000
									CHANNELS 3 Xrotation Yrotation Zrotation
									End Site
									{
										OFFSET 0.000000 8.688499 0.000000
									}
								}
							}
							JOINT newVegas:Right_Sleeve
							{
								OFFSET -0.267448 -0.649994 0.577675
								CHANNELS 3 Xrotation Yrotation Zrotation
								End Site
								{
									OFFSET 0.000000 15.991302 0.000000
								}
							}
						}
						JOINT newVegas:Right_CapeA
						{
							OFFSET -5.115540 -8.608795 -10.395824
							CHANNELS 3 Xrotation Yrotation Zrotation
							JOINT newVegas:Right_CapeA1
							{
								OFFSET 0.000000 -8.688499 0.000000
								CHANNELS 3 Xrotation Yrotation Zrotation
								End Site
								{
									OFFSET 0.000000 8.688499 0.000000
								}
							}
						}
						JOINT newVegas:Right_CapeB
						{
							OFFSET -26.118187 -8.608795 -7.079266
							CHANNELS 3 Xrotation Yrotation Zrotation
							JOINT newVegas:Right_CapeB1
							{
								OFFSET 0.000000 -8.688499 0.000000
								CHANNELS 3 Xrotation Yrotation Zrotation
								End Site
								{
									OFFSET 0.000000 8.688499 0.000000
								}
							}
						}
					}
				}
				JOINT newVegas:Left_Collar
				{
					OFFSET 18.625099 8.655502 8.828100
					CHANNELS 3 Xrotation Yrotation Zrotation
					JOINT newVegas:Left_Collar1
					{
						OFFSET 14.783401 10.540405 -1.259500
						CHANNELS 3 Xrotation Yrotation Zrotation
						End Site
						{
							OFFSET 0.000000 18.199875 0.000000
						}
					}
				}
				JOINT newVegas:Collar_Back
				{
					OFFSET 0.000000 15.630707 -20.132601
					CHANNELS 3 Xrotation Yrotation Zrotation
					End Site
					{
						OFFSET 0.000000 22.523010 0.000000
					}
				}
				JOINT newVegas:Left_Peck
				{
					OFFSET 17.239599 -5.132599 25.482599
					CHANNELS 3 Xrotation Yrotation Zrotation
					End Site
					{
						OFFSET 0.000000 22.523010 0.000000
					}
				}
				JOINT newVegas:Right_Peck
				{
					OFFSET -17.239599 -5.132202 25.482599
					CHANNELS 3 Xrotation Yrotation Zrotation
					End Site
					{
						OFFSET 0.000000 22.523010 0.000000
					}
				}
				JOINT newVegas:Right_Collar
				{
					OFFSET -18.625099 8.655792 8.828100
					CHANNELS 3 Xrotation Yrotation Zrotation
					JOINT newVegas:Right_Collar1
					{
						OFFSET -14.783401 10.539993 -1.259500
						CHANNELS 3 Xrotation Yrotation Zrotation
						End Site
						{
							OFFSET 0.000000 18.199631 0.000000
						}
					}
				}
			}
		}
		JOINT newVegas:Belly
		{
			OFFSET 0.000000 -6.540398 9.014299
			CHANNELS 3 Xrotation Yrotation Zrotation
			End Site
			{
				OFFSET 0.000000 11.566666 0.000000
			}
		}
	}
	JOINT newVegas:ElvisFacialAnim_Joint
	{
		OFFSET 1.000000 -95.330101 -8.825800
		CHANNELS 3 Xrotation Yrotation Zrotation
		End Site
		{
			OFFSET 0.000000 35.315800 0.000000
		}
	}
}
MOTION
Frames: 4
Frame Time: 0.033333
-3.485530 179.289856 -3.729250 25.382359 -33.257335 10.666311 -0.000000 0.000001 -0.000001 6.661250 14.261001 6.138721 22.732283 -11.045142 -5.984086 12.222191 24.107416 -5.794249 0.000001 -0.000001 0.000000 -0.000000 0.000001 0.000001 -23.424018 2.536630 -28.594763 67.320687 -1.625641 -7.196943 52.857441 -7.822266 -0.102405 -0.000001 0.000003 -0.000003 0.000001 -0.000002 -0.000000 0.890427 -2.379680 1.716407 -3.516367 -4.483233 2.173756 -2.583440 -4.457082 2.221943 0.002220 3.981266 3.033694 0.002230 3.981272 3.033688 0.000002 0.000003 -0.000001 0.002217 3.981280 3.033686 0.002226 3.981277 3.033694 -0.000000 0.000002 -0.000002 0.000002 0.000003 -0.000000 2.400083 2.419141 42.778482 -40.544638 -17.149734 25.219551 -0.000003 -0.076860 -0.000008 -80.575120 10.257849 35.282022 58.022423 -20.027728 2.908846 13.239336 12.054336 -14.415244 0.000002 -0.000005 -0.000005 5.068539 8.137405 -81.625316 3.247660 5.241764 -63.540328 -0.000003 0.000001 -0.000000 5.329671 8.169508 -84.204403 4.091416 5.581056 -72.469393 0.000001 0.000001 -0.000001 4.484610 8.021911 -75.787793 4.091424 5.581057 -72.469386 -0.000001 -0.000001 0.000000 4.484631 8.021956 -75.787779 4.091397 5.581045 -72.469379 0.000000 0.000002 -0.000000 0.000001 -0.000000 -0.000004 0.000001 -0.000000 -0.000004 0.000001 0.000000 -0.000004 0.000001 0.000001 -0.000001 0.000000 0.000001 -0.000003 0.000001 0.000001 -0.000001 0.000001 0.000001 -0.000001 9.103089 -11.782189 14.098228 -27.787204 -30.242527 19.204474 0.000002 20.602540 -0.000001 -38.744713 -2.577668 -21.409407 -1.495167 0.811799 -2.329717 -4.185957 -15.975667 -9.201872 0.000003 0.000000 0.000001 10.523120 1.003859 0.563926 0.200660 -1.353733 16.863233 -0.000001 0.000001 0.000003 0.197367 -3.755121 7.171444 0.797086 -2.607561 33.990307 0.000000 0.000000 0.000002 0.427439 -4.179073 29.506363 0.446107 -1.990804 25.258325 0.000000 0.000001 -0.000001 -1.454019 -7.298255 26.386124 1.031684 -2.925154 38.848224 -0.000001 -0.000000 0.000002 0.000001 -0.000003 -0.000001 0.000000 -0.000003 -0.000001 0.000001 -0.000003 -0.000001 -0.000001 0.000000 0.000001 -0.000000 0.000000 0.000001 -0.000001 0.000000 0.000001 -0.000000 -0.000000 0.000001 0.000001 -0.000000 -0.000000 0.000001 -0.000000 -0.000000 0.000001 -0.000000 -0.000000 0.000001 -0.000000 -0.000000 0.000001 -0.000000 -0.000000 0.000001 -0.000000 -0.000000 0.000001 -0.000000 -0.000000 0.000001 -0.000001 0.000000 -0.000000 0.000001 -0.000001 
-2.009678 176.210297 7.175762 24.978994 -28.466017 12.278455 -0.000001 0.000001 -0.000001 5.838838 13.328540 6.341606 18.043393 -6.773353 -6.068361 15.714689 23.199511 -8.106518 0.000002 0.000000 0.000001 -0.000001 0.000000 0.000001 -22.026428 -0.357485 -27.700708 63.280699 -0.215127 -6.381736 44.411072 -6.983018 4.799861 -0.000003 0.000003 -0.000002 0.000001 0.000001 0.000001 0.634242 -2.242662 2.138717 -3.564832 -3.946766 2.157719 -2.564280 -4.350545 2.141330 -1.634858 3.654290 2.812179 -1.634857 3.654282 2.812176 0.000002 0.000000 -0.000001 -1.634717 3.654255 2.812175 -1.634996 3.654351 2.812177 -0.000000 0.000001 0.000000 0.000002 0.000000 -0.000000 2.161819 2.882203 45.044203 -52.486606 -16.891177 15.052745 0.000006 -7.804236 0.000020 -77.287443 9.632439 35.914087 58.022443 -20.027723 2.908832 13.089208 12.120259 -14.405760 0.000001 -0.000002 -0.000001 5.028993 8.131503 -81.233407 3.247928 5.241895 -63.543313 0.000003 -0.000002 0.000001 5.313262 8.167835 -84.042855 4.091427 5.581060 -72.469414 0.000001 0.000001 -0.000004 4.484609 8.021902 -75.787800 4.091425 5.581068 -72.469414 0.000002 -0.000001 0.000003 4.484627 8.021948 -75.787793 4.091389 5.581056 -72.469393 -0.000002 -0.000002 0.000000 -0.000000 0.000000 -0.000001 -0.000000 0.000000 -0.000001 -0.000000 0.000000 -0.000001 -0.000000 -0.000001 0.000002 0.000000 -0.000001 0.000002 -0.000000 -0.000001 0.000002 -0.000000 -0.000001 0.000002 9.567690 -10.320585 15.014161 -25.222130 -28.453694 21.565421 -0.000001 11.082519 0.000011 -42.514526 -4.307726 -17.857040 -1.495168 0.811804 -2.329709 -4.185951 -15.975690 -9.201883 -0.000000 0.000002 0.000003 10.523109 1.003829 0.563920 0.241401 -1.481381 18.509203 -0.000001 -0.000000 0.000003 0.130381 -3.225270 7.210872 0.797091 -2.607547 33.990327 0.000001 0.000001 0.000003 0.379835 -4.067993 28.026746 0.390028 -1.867430 23.592845 -0.000004 -0.000003 0.000001 -1.524643 -7.139081 24.287436 0.917966 -2.778238 36.563007 0.000001 0.000003 0.000001 -0.000000 0.000000 -0.000000 -0.000000 -0.000000 0.000002 0.000000 0.000001 -0.000000 0.000001 0.000000 -0.000001 0.000001 -0.000001 -0.000003 0.000001 0.000000 -0.000001 0.000002 -0.000001 -0.000001 0.000002 -0.000001 0.000001 0.000002 -0.000001 0.000001 0.000002 -0.000001 0.000001 0.000002 -0.000001 0.000001 0.000002 -0.000001 0.000001 0.000002 -0.000001 0.000001 0.000002 -0.000001 0.000001 -0.000000 -0.000001 -0.000000 -0.000001 0.000001 -0.000001 
-0.557468 173.429565 18.205221 24.189859 -23.798058 13.289399 -0.000000 0.000000 -0.000000 3.096977 12.409760 7.402791 17.419540 -2.784258 -6.587964 18.099475 21.572980 -10.700381 -0.000000 0.000000 0.000000 0.000003 0.000000 0.000002 -20.830286 -1.535464 -26.333173 59.606644 -1.101797 -5.627733 38.484516 -6.215078 9.971314 0.000000 0.000001 -0.000001 -0.000002 0.000002 -0.000001 0.441653 -2.097159 2.617596 -3.224700 -3.516793 2.138547 -2.547835 -3.807927 2.183506 -3.100971 3.343231 2.391736 -3.100974 3.343230 2.391738 0.000000 -0.000002 -0.000001 -3.100968 3.343238 2.391731 -3.100968 3.343223 2.391728 0.000001 -0.000000 -0.000002 0.000000 -0.000002 0.000001 1.795222 3.649555 46.653798 -62.757110 -15.007930 6.569593 0.000003 -14.796514 0.000001 -74.097164 9.291041 35.976041 58.022443 -20.027720 2.908838 12.932205 12.184249 -14.395228 0.000002 -0.000001 0.000001 5.000389 8.127057 -80.949558 3.258876 5.247312 -63.663053 0.000006 -0.000004 0.000001 5.308402 8.167315 -83.994887 4.091403 5.581068 -72.469386 -0.000001 -0.000004 0.000003 4.484615 8.021891 -75.787779 4.091406 5.581055 -72.469373 -0.000002 -0.000001 0.000001 4.484627 8.021945 -75.787806 4.091398 5.581055 -72.469366 0.000004 -0.000003 0.000001 -0.000000 0.000001 -0.000002 -0.000000 0.000001 -0.000002 -0.000000 0.000001 -0.000002 -0.000000 -0.000001 -0.000001 -0.000000 -0.000001 -0.000001 -0.000000 -0.000001 -0.000001 -0.000000 -0.000001 -0.000001 9.770644 -8.822498 15.051789 -22.914540 -26.007948 24.335853 0.000004 7.648785 0.000003 -45.360027 -4.349809 -13.993907 -1.495168 0.811793 -2.329718 -4.185955 -15.975691 -9.201890 -0.000000 0.000001 -0.000006 10.523109 1.003825 0.563913 0.277541 -1.585240 19.859854 -0.000000 0.000000 -0.000002 0.057250 -2.649843 7.254375 0.797081 -2.607538 33.990300 -0.000000 0.000001 -0.000001 0.325967 -3.931655 26.232684 0.320965 -1.700601 21.374502 -0.000002 -0.000003 -0.000001 -1.612737 -6.940165 21.600910 0.772664 -2.570973 33.449622 0.000003 0.000001 0.000001 -0.000001 0.000000 0.000000 -0.000001 0.000000 0.000000 -0.000001 0.000000 -0.000001 -0.000001 0.000001 -0.000000 -0.000000 0.000002 -0.000000 -0.000001 0.000001 -0.000000 -0.000000 0.000002 0.000001 0.000002 0.000002 -0.000001 0.000002 0.000002 -0.000001 0.000002 0.000002 -0.000001 0.000002 0.000002 -0.000001 0.000002 0.000002 -0.000001 0.000002 0.000002 -0.000001 0.000002 0.000002 -0.000001 -0.000000 -0.000001 -0.000000 -0.000000 0.000000 -0.000000 
0.923103 171.271317 29.436808 22.615689 -19.222381 13.754488 0.000001 0.000001 -0.000000 -3.267625 11.407604 9.648774 24.463111 -0.078687 -7.654848 17.731002 19.467573 -12.952882 -0.000001 0.000001 0.000000 -0.000004 0.000000 0.000001 -19.032722 -2.998879 -26.191301 56.141969 -1.539673 -4.623000 32.822590 -5.598263 14.834792 0.000000 -0.000000 -0.000001 0.000001 0.000000 0.000001 0.320742 -1.950414 3.181852 -2.699972 -3.102141 2.102558 -2.376677 -3.085666 2.262205 -4.423672 3.031603 1.832139 -4.423669 3.031611 1.832132 0.000001 0.000000 0.000000 -4.423663 3.031615 1.832130 -4.423669 3.031596 1.832132 -0.000000 -0.000001 -0.000001 0.000001 0.000000 0.000000 1.426545 4.383333 47.563043 -71.382498 -12.251157 -0.468782 -0.000005 -20.969516 0.000001 -70.989639 9.081700 35.408148 58.022437 -20.027744 2.908826 12.766866 12.246778 -14.384307 -0.000000 -0.000002 -0.000008 4.981738 8.124098 -80.764426 3.279616 5.257474 -63.889555 -0.000001 0.000000 -0.000001 5.314067 8.167918 -84.050682 4.091414 5.581051 -72.469386 -0.000002 -0.000002 -0.000001 4.484608 8.021910 -75.787806 4.091430 5.581063 -72.469414 0.000002 -0.000004 0.000002 4.484628 8.021962 -75.787793 4.091393 5.581065 -72.469393 0.000001 -0.000003 0.000002 -0.000000 0.000000 0.000001 -0.000000 0.000000 0.000001 -0.000000 0.000000 0.000001 0.000000 -0.000001 -0.000000 -0.000000 -0.000001 -0.000002 0.000000 -0.000001 -0.000000 -0.000000 -0.000000 -0.000000 9.716806 -7.246232 14.199484 -20.850264 -22.824015 27.464964 0.000011 8.936443 -0.000004 -47.210790 -2.698704 -9.621974 -1.495159 0.811798 -2.329712 -4.185966 -15.975660 -9.201870 0.000001 0.000000 -0.000002 10.523112 1.003818 0.563914 0.314882 -1.684975 21.168413 0.000001 0.000001 0.000001 -0.017109 -2.067926 7.299095 0.797079 -2.607572 33.990327 0.000000 -0.000000 0.000001 0.275258 -3.790223 24.394094 0.256297 -1.525184 19.077543 0.000001 0.000004 -0.000000 -1.698893 -6.737600 18.831142 0.633982 -2.347824 30.218878 0.000000 -0.000004 -0.000001 0.000002 0.000001 0.000001 -0.000000 0.000002 0.000000 0.000002 0.000001 0.000001 -0.000000 0.000000 -0.000003 0.000001 0.000001 -0.000006 -0.000000 0.000000 -0.000003 0.000001 0.000001 -0.000004 -0.000002 -0.000003 0.000002 -0.000002 -0.000003 0.000002 -0.000002 -0.000003 0.000002 -0.000002 -0.000003 0.000002 -0.000002 -0.000003 0.000002 -0.000002 -0.000003 0.000002 -0.000002 -0.000003 0.000002 -0.000002 -0.000001 -0.000000 0.000001 0.000001 -0.000000 
